<mxfile host="app.diagrams.net" modified="2022-05-12T07:00:23.263Z" agent="5.0 (Windows NT 10.0; Win64; x64) AppleWebKit/537.36 (KHTML, like Gecko) Chrome/87.0.4280.88 Safari/537.36" etag="IApSpW8_CKC1zPcS2x6k" version="18.0.3" type="github">
  <diagram name="Page-1" id="c7558073-3199-34d8-9f00-42111426c3f3">
    <mxGraphModel dx="1040" dy="617" grid="1" gridSize="10" guides="1" tooltips="1" connect="1" arrows="1" fold="1" page="1" pageScale="1" pageWidth="826" pageHeight="1169" background="none" math="0" shadow="0">
      <root>
        <mxCell id="0" />
        <mxCell id="1" parent="0" />
        <mxCell id="RVoE2YUiOQONmOlQaDxp-105" style="edgeStyle=orthogonalEdgeStyle;rounded=0;orthogonalLoop=1;jettySize=auto;html=1;" edge="1" parent="1" source="RVoE2YUiOQONmOlQaDxp-97" target="RVoE2YUiOQONmOlQaDxp-102">
          <mxGeometry relative="1" as="geometry" />
        </mxCell>
        <mxCell id="RVoE2YUiOQONmOlQaDxp-97" value="&lt;font style=&quot;font-size: 16px;&quot;&gt;&lt;b&gt;图片编号重命名&lt;/b&gt;&lt;/font&gt;" style="rounded=0;whiteSpace=wrap;html=1;" vertex="1" parent="1">
          <mxGeometry x="390" y="240" width="120" height="60" as="geometry" />
        </mxCell>
        <mxCell id="RVoE2YUiOQONmOlQaDxp-99" style="edgeStyle=orthogonalEdgeStyle;rounded=0;orthogonalLoop=1;jettySize=auto;html=1;" edge="1" parent="1" source="RVoE2YUiOQONmOlQaDxp-98" target="RVoE2YUiOQONmOlQaDxp-97">
          <mxGeometry relative="1" as="geometry" />
        </mxCell>
        <mxCell id="RVoE2YUiOQONmOlQaDxp-98" value="&lt;div style=&quot;font-size: 16px;&quot;&gt;&lt;font style=&quot;font-size: 16px;&quot;&gt;&lt;b&gt;视频截图，找到学生睡觉、玩手机的帧&lt;/b&gt;&lt;/font&gt;&lt;/div&gt;" style="rounded=0;whiteSpace=wrap;html=1;" vertex="1" parent="1">
          <mxGeometry x="390" y="130" width="120" height="60" as="geometry" />
        </mxCell>
        <mxCell id="RVoE2YUiOQONmOlQaDxp-104" style="edgeStyle=orthogonalEdgeStyle;rounded=0;orthogonalLoop=1;jettySize=auto;html=1;entryX=0.5;entryY=0;entryDx=0;entryDy=0;" edge="1" parent="1" source="RVoE2YUiOQONmOlQaDxp-100" target="RVoE2YUiOQONmOlQaDxp-98">
          <mxGeometry relative="1" as="geometry" />
        </mxCell>
        <mxCell id="RVoE2YUiOQONmOlQaDxp-100" value="&lt;b&gt;&lt;font style=&quot;font-size: 16px;&quot;&gt;导入监控视频&lt;/font&gt;&lt;/b&gt;" style="html=1;dashed=0;whitespace=wrap;shape=mxgraph.dfd.start" vertex="1" parent="1">
          <mxGeometry x="390" y="50" width="120" height="30" as="geometry" />
        </mxCell>
        <mxCell id="RVoE2YUiOQONmOlQaDxp-106" style="edgeStyle=orthogonalEdgeStyle;rounded=0;orthogonalLoop=1;jettySize=auto;html=1;entryX=0.5;entryY=0.5;entryDx=0;entryDy=-15;entryPerimeter=0;" edge="1" parent="1" source="RVoE2YUiOQONmOlQaDxp-102" target="RVoE2YUiOQONmOlQaDxp-103">
          <mxGeometry relative="1" as="geometry" />
        </mxCell>
        <mxCell id="RVoE2YUiOQONmOlQaDxp-102" value="&lt;div style=&quot;font-size: 16px;&quot;&gt;&lt;font style=&quot;font-size: 16px;&quot;&gt;&lt;b&gt;图像标注、生成&lt;/b&gt;&lt;/font&gt;&lt;/div&gt;&lt;div style=&quot;font-size: 16px;&quot;&gt;&lt;font style=&quot;font-size: 16px;&quot;&gt;&lt;b&gt;XML&lt;/b&gt;&lt;/font&gt;&lt;/div&gt;" style="rounded=0;whiteSpace=wrap;html=1;" vertex="1" parent="1">
          <mxGeometry x="390" y="340" width="120" height="60" as="geometry" />
        </mxCell>
        <mxCell id="RVoE2YUiOQONmOlQaDxp-103" value="&lt;font style=&quot;font-size: 16px;&quot;&gt;&lt;b&gt;导入VOC数据集&lt;br&gt;文件模板&lt;/b&gt;&lt;/font&gt;" style="html=1;dashed=0;whitespace=wrap;shape=mxgraph.dfd.start" vertex="1" parent="1">
          <mxGeometry x="390" y="450" width="120" height="60" as="geometry" />
        </mxCell>
      </root>
    </mxGraphModel>
  </diagram>
</mxfile>
